<?xml version="1.0" encoding="utf-8"?>
<!DOCTYPE svg PUBLIC "-//W3C//DTD SVG 1.0//EN" "http://www.w3.org/TR/2001/REC-SVG-20010904/DTD/svg10.dtd">
<svg version="1.0" xmlns="http://www.w3.org/2000/svg" width="312px" height="243px" viewBox="0 0 312 243" preserveAspectRatio="xMidYMid meet">
 <rect width="312" height="243" fill="#ffffff" rx="16"/>
 <g fill="#000000">
  <path d="M0 121.33 l0 -121.33 156 0 156 0 0 121.33 0 121.33 -156 0 -156 0 0 -121.33z m213.74 105.14 c-0.03 -1.14 -0.27 -3.14 -0.51 -4.41 -0.38 -2 -0.41 -2.82 -0.14 -5.82 0.22 -2.30 0.22 -3.87 0.05 -4.58 -0.14 -0.60 -0.27 -1.76 -0.27 -2.60 0 -1.19 0.11 -1.63 0.54 -2 0.32 -0.27 0.81 -0.89 1.11 -1.38 0.51 -0.87 0.51 -0.87 -0.03 -2.33 -0.30 -0.79 -1.14 -2.22 -1.90 -3.17 -1.49 -1.95 -1.73 -3.11 -0.92 -4.69 0.81 -1.60 -0.14 -3.76 -2.19 -4.96 -2.22 -1.33 -3.33 -0.43 -3.58 2.92 -0.14 1.73 -0.08 2.22 0.46 3.28 0.65 1.38 0.65 1.95 -0.11 5.17 -0.22 1.06 -0.43 2.65 -0.43 3.60 0 1.33 -0.16 2.03 -0.81 3.30 -1.08 2.11 -1.06 2.44 0.14 2.44 0.89 0 0.95 0.05 0.95 0.84 0 0.57 -0.27 1.16 -0.81 1.79 -1.06 1.19 -2.17 3.39 -2.17 4.28 0 0.41 0.43 1.46 0.95 2.36 1.44 2.41 1.76 3.39 1.76 5.01 0 1.25 0.08 1.46 0.43 1.33 0.24 -0.08 0.54 -0.16 0.70 -0.16 0.43 0 0 -2.28 -0.89 -4.71 -1.06 -2.90 -1.03 -3.74 0.11 -4.55 0.68 -0.49 1.22 -0.62 2.49 -0.62 l1.63 0 0.49 1.49 c0.70 2.06 2.09 8.48 2.09 9.59 0 0.76 0.08 0.89 0.49 0.81 0.41 -0.11 0.46 -0.41 0.38 -2.22z m-89.70 -3.44 c0.68 -0.19 2.44 -0.49 3.93 -0.62 1.49 -0.16 3.03 -0.43 3.47 -0.62 0.68 -0.30 0.73 -0.43 0.73 -1.98 -0.03 -1.30 -0.08 -1.54 -0.30 -1.16 -0.38 0.65 -1.87 1.27 -3.06 1.27 -1.71 0 -2.25 -0.41 -3.33 -2.44 -0.57 -1.06 -1.68 -3.06 -2.44 -4.47 -1.27 -2.25 -1.44 -2.68 -1.44 -4.12 0 -1.87 0.14 -2.11 1.52 -2.90 0.76 -0.41 1.08 -0.81 1.19 -1.35 0.11 -0.60 0.35 -0.87 0.95 -1.06 1.08 -0.35 1.71 -0.92 2.36 -2.19 1.41 -2.74 -0.11 -6.12 -3.22 -7.15 -1.19 -0.41 -2.57 0.03 -3.87 1.19 -0.89 0.81 -1.19 1.38 -1.87 3.60 -0.57 1.84 -1.38 3.55 -2.63 5.61 -2.49 4.12 -3.44 6.07 -4.71 9.72 -1.30 3.82 -1.71 5.96 -1.33 7.31 0.30 1.06 0.84 1.38 2.82 1.73 1.73 0.30 9.86 0.03 11.24 -0.38z m-55.36 -0.49 c0.08 -0.05 -0.30 -0.22 -0.84 -0.30 -1.46 -0.30 -2.03 -1.06 -2.03 -2.87 0 -0.84 0.16 -1.71 0.35 -1.95 0.16 -0.24 1.79 -1.41 3.58 -2.60 1.79 -1.16 3.49 -2.41 3.76 -2.74 0.38 -0.41 0.84 -0.57 1.71 -0.57 l1.19 0 0.89 1.98 c1.08 2.33 3.52 6.58 4.31 7.45 0.35 0.35 0.87 0.60 1.35 0.60 0.76 0 0.79 -0.03 0.41 -0.46 -0.24 -0.27 -0.73 -1.25 -1.08 -2.17 -0.38 -0.92 -1.35 -2.68 -2.19 -3.93 -1.81 -2.65 -2.63 -4.77 -2.63 -6.85 0 -1.65 0.16 -2.06 1.49 -3.82 0.76 -0.98 0.92 -1.49 1.08 -3.17 0.16 -1.73 0.11 -2.14 -0.38 -3.11 -0.65 -1.27 -1.79 -2.22 -3.66 -3.06 -3.20 -1.41 -6.82 0.14 -7.77 3.28 -0.27 0.84 -0.24 1.38 0.14 2.82 0.57 2.28 0.54 3.22 -0.05 3.76 -0.73 0.68 -4.63 2.38 -8.59 3.82 -4.60 1.68 -5.31 2.14 -6.36 4.36 -0.70 1.49 -0.95 1.76 -1.52 1.76 -0.38 0 -1.03 0.19 -1.46 0.43 -0.73 0.46 -2.17 2.38 -2.17 2.98 0 0.65 1.27 2.17 2.55 3.01 1.27 0.87 1.30 0.87 2.28 0.46 0.54 -0.22 1.44 -0.84 1.95 -1.33 1.19 -1.16 1.90 -1.19 4.28 -0.16 1 0.43 2.68 1.06 3.71 1.35 1.06 0.32 2.30 0.81 2.82 1.08 0.68 0.35 1.16 0.43 1.84 0.27 0.51 -0.11 1 -0.24 1.06 -0.32z m179.16 -3.36 c0.51 -0.81 1.49 -2.38 2.19 -3.47 l1.25 -1.98 2 -0.19 c1.08 -0.08 2.71 -0.30 3.60 -0.43 2.84 -0.43 6.09 -0.30 7.42 0.30 1.68 0.76 1.68 0.68 -0.03 -0.51 -0.81 -0.60 -1.81 -1.52 -2.22 -2.03 l-0.73 -0.98 -3.74 0 c-2.52 0 -3.82 -0.11 -4.04 -0.32 -0.60 -0.60 -0.38 -2.95 0.43 -4.33 1.52 -2.60 3.11 -4.47 4.39 -5.04 l1.22 -0.54 -0.87 -0.03 c-0.87 -0.03 -0.89 -0.08 -0.89 -1.11 0 -2.74 -2.33 -4.60 -4.33 -3.52 -0.73 0.38 -1.60 2.28 -1.63 3.47 l0 0.87 -2.36 0 c-2.25 0 -2.30 0.03 -1.90 0.49 0.79 0.87 0.62 4.31 -0.35 7.72 -0.65 2.28 -0.87 3.66 -1.06 6.93 -0.27 4.96 -0.38 5.17 -2.74 5.17 -0.87 0 -2.09 -0.19 -2.74 -0.41 -0.62 -0.24 -1.11 -0.38 -1.03 -0.30 0.05 0.05 0.68 0.54 1.41 1.08 0.70 0.54 1.84 1.41 2.55 1.95 l1.30 0.98 0.98 -1.14 c0.54 -0.62 1.41 -1.81 1.90 -2.63z m-10.78 -2.28 c-0.41 -0.43 -0.73 -0.51 -1.19 -0.38 -0.60 0.22 -0.57 0.24 0.43 0.54 0.60 0.19 1.14 0.35 1.22 0.38 0.05 0.03 -0.14 -0.22 -0.46 -0.54z m32.96 -1.63 c0 -0.14 -0.51 -0.24 -1.14 -0.24 l-1.16 0 0.81 0.54 c0.76 0.49 1.49 0.35 1.49 -0.30z m-205.48 -45.66 c0.22 -12.16 1.38 -20.72 4.63 -33.56 7.31 -28.90 23.64 -53.95 45.15 -69.31 5.12 -3.66 11.32 -7.18 15.95 -9.07 0.81 -0.32 1.87 -0.76 2.30 -0.95 3.20 -1.35 11.43 -3.52 16.93 -4.44 7.07 -1.19 16.47 -1.14 24.10 0.14 26.22 4.41 50.38 22.37 66.08 49.13 2.46 4.17 6.82 13.11 8.53 17.47 6.85 17.36 10.86 38.70 10.37 55.06 l-0.11 3.85 7.66 0 7.66 0 0 -4.39 c0 -21.86 -4.85 -46.18 -13.19 -66 -7.20 -17.20 -17.06 -32.12 -29.33 -44.47 -9.07 -9.13 -18.25 -15.82 -28.84 -20.96 -9.86 -4.79 -18.61 -7.47 -29.39 -8.99 -4.36 -0.60 -15.55 -0.57 -20.45 0.08 -9.40 1.22 -19.36 3.90 -26 6.99 -0.73 0.35 -1.90 0.87 -2.57 1.14 -1.68 0.68 -7.75 3.93 -10.54 5.66 -11.92 7.39 -23.29 17.98 -32.83 30.60 -7.91 10.48 -15.22 24.29 -20.29 38.40 -4.66 13.03 -7.80 27.11 -9.34 42.03 -0.51 5.17 -1.06 17.14 -0.81 18.71 l0.16 1.19 6.99 0 6.99 0 0.16 -8.31z m14.81 7.31 c0 -1.95 0.54 -8.88 0.98 -12.54 1.95 -16.76 8.04 -34.53 16.49 -48.07 13.70 -22.02 32.83 -35.45 55.39 -38.92 1.49 -0.22 4.88 -0.35 9.48 -0.35 6.28 0.03 7.61 0.08 10.70 0.65 21.67 3.85 41.19 18.47 54.38 40.65 9.56 16.06 15.41 36.02 16.33 55.60 l0.16 3.98 3.28 0 3.25 0 -0.16 -4.25 c-0.62 -15.46 -4.63 -32.69 -11.05 -47.56 -8.53 -19.80 -22.53 -36.72 -38.57 -46.64 -9.59 -5.93 -19.36 -9.51 -30.47 -11.13 -5.61 -0.81 -16.79 -0.22 -23.16 1.25 -10.07 2.30 -19.72 6.66 -28.22 12.78 -19.26 13.87 -33.94 36.48 -40.98 63.19 -2.65 10.05 -4.33 21.59 -4.33 29.68 l0 2.68 3.25 0 3.25 0 0 -1z m20.31 -0.70 c0 -2.63 0.51 -8.61 1.08 -12.51 1.98 -13.76 7.15 -26.95 14.79 -37.67 9.64 -13.57 21.91 -21.94 36.81 -25.19 2.79 -0.60 4.14 -0.73 9.43 -0.84 7.12 -0.16 9.75 0.08 14.95 1.41 5.93 1.52 11.27 3.95 16.82 7.66 19.31 12.95 31.39 36.16 32.88 63.24 0.14 2.55 0.27 4.88 0.27 5.15 0 0.41 0.38 0.46 4.22 0.46 l4.25 0 -0.19 -3.30 c-0.49 -8.91 -1.65 -16.90 -3.41 -23.73 -4.55 -17.44 -11.84 -30.79 -22.89 -41.92 -10.89 -10.97 -23.21 -17.58 -37.65 -20.18 -4.52 -0.84 -12.62 -0.84 -17.28 0 -6.99 1.25 -11.40 2.65 -17.39 5.55 -12.32 6.01 -22.94 15.84 -31.04 28.74 -7.15 11.35 -12.35 26.08 -14.16 39.95 -0.60 4.44 -0.98 9.21 -0.98 12.27 l0 2.63 4.74 0 4.74 0 0 -1.71z m16.36 0.84 c0.08 -0.49 0.27 -2.41 0.43 -4.28 0.73 -8.31 3.49 -17.58 7.56 -25.35 7.50 -14.30 18.55 -23.26 32.66 -26.54 1.73 -0.41 3.25 -0.51 7.58 -0.51 7.77 0 11.24 0.79 17.88 4.04 17.31 8.48 29.41 28.36 30.90 50.75 l0.19 2.76 3.60 0 3.63 0 -0.14 -1.95 c-0.32 -3.95 -1 -9.10 -1.63 -12.27 -2.25 -11.19 -7.15 -22.37 -13.57 -31.01 -2.49 -3.36 -8.21 -9.15 -11.54 -11.73 -6.50 -5.06 -13.60 -8.37 -21.34 -9.97 -2.60 -0.51 -3.36 -0.57 -8.72 -0.41 -6.58 0.19 -8.23 0.46 -13.08 2.09 -11.40 3.87 -22.18 12.81 -29.63 24.54 -3.85 6.07 -6.96 13.11 -9.05 20.53 -1.79 6.28 -2.68 11.10 -3.30 18.23 l-0.19 1.95 3.82 0 3.79 0 0.14 -0.87z m18.12 -1.60 c0.70 -9.72 5.12 -19.58 11.59 -25.84 3.09 -2.98 6.12 -4.90 9.67 -6.12 2.49 -0.84 2.87 -0.89 7.23 -1 4.01 -0.08 4.93 -0.03 7.04 0.46 6.42 1.54 12.68 6.12 16.79 12.32 3.93 5.96 5.96 11.86 6.66 19.34 l0.32 3.30 5.42 0 5.42 0 -0.16 -2.68 c-0.73 -10.83 -4.96 -22.48 -11.21 -30.90 -2.17 -2.90 -6.85 -7.45 -9.70 -9.37 -9.45 -6.45 -18.80 -7.99 -28.98 -4.79 -10.05 3.17 -19.80 12.40 -25.11 23.83 -3.20 6.88 -5.90 17.31 -5.90 22.67 l0 1.25 5.39 0 5.36 0 0.16 -2.46z"/>
 </g>
 <g fill="#f7b3ad">
  <path d="M242.48 222.49 c-3.11 -2.41 -5.77 -4.22 -6.50 -4.44 -0.41 -0.14 -1.27 -0.38 -1.90 -0.54 -0.65 -0.19 -1.16 -0.49 -1.16 -0.68 0 -0.43 2.30 -1.25 3.55 -1.25 0.62 0 1.16 0.30 2 1.06 1.19 1.08 3.68 2.19 4.98 2.19 1.46 0 1.71 -0.68 1.95 -5.17 0.19 -3.28 0.41 -4.66 1.06 -6.93 0.95 -3.30 1.06 -5.47 0.35 -6.09 -0.49 -0.41 -2.87 -0.98 -4.69 -1.08 -1.08 -0.08 -1.38 -0.70 -0.68 -1.41 0.54 -0.54 2.14 -0.54 4.33 -0.03 0.89 0.22 2.44 0.41 3.47 0.41 l1.81 0 0 -0.89 c0 -0.49 0.27 -1.44 0.62 -2.09 0.46 -0.98 0.81 -1.30 1.68 -1.57 1.41 -0.49 3.01 -0.24 3.85 0.54 1.06 1 1.76 2.57 1.57 3.52 -0.16 0.70 -0.14 0.79 0.30 0.68 0.30 -0.08 0.92 -0.24 1.41 -0.32 0.49 -0.11 1.79 -0.60 2.90 -1.11 1.14 -0.51 2.44 -0.92 3.01 -0.92 l1 0 -0.62 0.68 c-0.51 0.57 -6.61 3.74 -8.26 4.31 -1 0.35 -4.44 5.42 -4.47 6.55 0 1.06 0.49 1.19 4.36 1.19 l3.71 0 0.84 1.06 c0.98 1.25 4.55 3.76 5.63 3.98 0.60 0.11 0.92 0 1.41 -0.54 0.38 -0.38 0.95 -0.70 1.33 -0.70 0.57 0 0.62 0.08 0.46 0.73 -0.30 1.22 -1.33 3.14 -1.84 3.44 -0.35 0.24 -0.73 0.16 -1.63 -0.35 -4.63 -2.60 -5.36 -2.87 -7.64 -2.87 -1.19 0 -3.58 0.16 -5.28 0.35 -3.60 0.41 -3.41 0.30 -5.66 4.12 -0.76 1.27 -1.92 3.01 -2.60 3.87 -1.60 2.03 -2.36 2.09 -4.66 0.32z"/>
  <path d="M49.40 177.48 c-0.24 -1.68 0.32 -15.33 0.84 -20.39 1.60 -14.95 4.71 -28.95 9.34 -41.90 5.06 -14.11 12.38 -27.92 20.29 -38.40 9.53 -12.62 20.91 -23.21 32.83 -30.60 2.79 -1.73 8.86 -4.98 10.54 -5.66 0.68 -0.27 1.84 -0.79 2.57 -1.14 6.66 -3.09 16.60 -5.77 26.05 -7.01 5.01 -0.65 17.60 -0.68 22.02 -0.05 10.86 1.54 19.53 4.20 29.39 8.99 10.59 5.15 19.77 11.84 28.84 20.96 10.35 10.40 18.06 21.31 25.19 35.51 11.13 22.24 17.33 49.32 17.33 75.78 l0 5.20 -8.53 0 -8.53 0 0.16 -3.98 c0.68 -15.55 -3.47 -37.51 -10.32 -54.92 -1.71 -4.36 -6.07 -13.30 -8.53 -17.47 -12.78 -21.83 -31.93 -38.46 -52.43 -45.58 -13.73 -4.77 -26.84 -5.77 -39.65 -3.01 -5.31 1.14 -10.97 2.74 -13.41 3.76 -0.43 0.19 -1.49 0.62 -2.30 0.95 -9.53 3.90 -20.85 11.84 -29.39 20.61 -18.34 18.88 -29.76 42.52 -34.64 71.61 -1.25 7.47 -1.57 11.08 -1.71 19.72 l-0.16 8.31 -7.80 0 -7.80 0 -0.19 -1.27z"/>
 </g>
 <g fill="#dfaf37">
  <path d="M111.99 224.25 c-2.11 -0.43 -2.52 -0.70 -2.84 -1.95 -0.46 -1.68 -0.11 -4.20 1.11 -7.94 1.22 -3.82 2.46 -6.47 4.96 -10.54 1.25 -2.06 2.06 -3.76 2.63 -5.61 0.68 -2.22 0.98 -2.79 1.87 -3.60 2.11 -1.90 4.90 -1.98 7.26 -0.24 1.41 1.06 2.09 2.60 2.06 4.82 -0.03 2.76 -1.06 4.60 -2.95 5.20 -0.60 0.19 -0.84 0.46 -0.95 1.06 -0.11 0.54 -0.43 0.95 -1.19 1.35 -1.98 1.11 -2 2 -0.08 5.39 0.76 1.41 1.87 3.41 2.44 4.47 1.19 2.25 1.90 2.68 3.44 2.11 0.65 -0.24 1.11 -0.68 1.44 -1.38 0.49 -1 1.06 -1.27 1.41 -0.70 0.32 0.49 0.68 3.85 0.51 4.74 -0.22 1.14 -0.98 1.46 -4.31 1.79 -1.49 0.14 -3.25 0.41 -3.93 0.62 -1.41 0.43 -11.19 0.73 -12.86 0.41z"/>
  <path d="M89.38 175.31 c0 -10.56 2.03 -22.24 5.63 -32.85 5.71 -16.68 14.87 -30.28 27.41 -40.63 4.82 -3.98 13.84 -9.07 19.64 -11.10 3.09 -1.08 7.91 -2.28 11.70 -2.87 4.20 -0.68 13.24 -0.68 17.28 -0.03 9.70 1.63 18.42 5.09 26.62 10.56 10.56 7.04 19.45 16.90 25.76 28.49 7.50 13.76 11.59 29.52 12.38 47.61 l0.19 4.25 -5.04 0 c-4.63 0 -5.06 -0.03 -5.06 -0.46 0 -0.27 -0.14 -2.60 -0.27 -5.15 -1.19 -21.31 -8.99 -40.54 -22.02 -54.14 -6.12 -6.42 -14.16 -11.89 -22.07 -15.03 -2.82 -1.11 -8.53 -2.55 -11.78 -2.95 -4.28 -0.54 -12.57 -0.22 -16.58 0.65 -8.88 1.92 -16.74 5.63 -23.70 11.19 -14.60 11.62 -24.89 30.71 -27.90 51.67 -0.57 3.90 -1.08 9.89 -1.08 12.51 l0 1.71 -5.55 0 -5.55 0 0 -3.44z"/>
 </g>
 <g fill="#ef9d7b">
  <path d="M211.11 229.37 c-0.11 -0.16 0.05 -0.57 0.38 -0.89 l0.57 -0.62 -0.68 -3.22 c-0.87 -3.93 -1.68 -6.80 -2.06 -7.01 -0.43 -0.27 -1.68 0.11 -2.49 0.76 l-0.76 0.60 0.79 2.17 c0.98 2.65 1.60 5.74 1.25 6.07 -0.38 0.35 -3.55 1.38 -4.28 1.38 -1.16 0 -1.14 -0.57 0.08 -1.60 1.60 -1.41 1.57 -1.65 -1.16 -6.66 -0.60 -1.08 -0.73 -1.57 -0.60 -2.49 0.19 -1.44 1.22 -3.52 2.38 -4.85 l0.89 -1 -0.89 0.14 c-0.54 0.08 -1 0 -1.16 -0.24 -0.43 -0.49 -0.08 -2.03 0.81 -3.85 0.62 -1.22 0.79 -2.03 0.92 -4.09 0.08 -1.41 0.35 -3.20 0.57 -3.95 0.41 -1.27 0.41 -1.44 -0.11 -2.41 -0.41 -0.81 -0.54 -1.60 -0.54 -3.25 0.03 -4.14 0.65 -5.28 2.95 -5.28 1.76 0 3.66 1.22 4.36 2.79 0.62 1.35 0.68 3.55 0.14 4.52 -0.57 1 -0.54 1.08 0.95 3.01 1.46 1.87 2.44 4.06 2.44 5.47 0 0.92 -0.43 1.71 -1.57 2.95 -0.68 0.73 -0.68 0.76 -0.32 2.98 0.27 1.79 0.27 2.92 0.03 5.50 -0.27 2.71 -0.24 3.58 0.08 5.01 0.19 0.98 0.46 3.17 0.54 4.90 0.16 3.11 0.16 3.17 -0.46 3.33 -0.98 0.27 -2.84 0.19 -3.03 -0.14z"/>
  <path d="M120.95 218.24 c-0.38 -0.43 -0.43 -0.68 -0.24 -1 0.32 -0.51 1.60 -0.60 1.52 -0.08 -0.05 0.16 0.03 0.32 0.16 0.32 0.14 0 0.22 0.30 0.19 0.68 -0.03 0.84 -0.87 0.89 -1.63 0.08z"/>
  <path d="M72.04 175.26 c0 -8.96 1.57 -20.04 4.33 -30.50 5.44 -20.69 15.30 -38.70 28.63 -52.41 12 -12.35 25.30 -20.10 40.57 -23.56 4.22 -0.98 8.02 -1.38 14.84 -1.54 5.63 -0.14 7.37 -0.08 9.94 0.30 20.01 2.92 37.29 12.84 51.57 29.55 15.14 17.69 24.81 41.22 27.92 67.84 0.24 2 0.51 5.93 0.60 8.75 l0.16 5.06 -4.06 0 -4.09 0 -0.16 -3.98 c-0.92 -19.58 -6.77 -39.54 -16.33 -55.60 -7.91 -13.35 -18.52 -24.35 -30.39 -31.52 -7.42 -4.50 -15.71 -7.66 -24 -9.13 -3.03 -0.54 -4.44 -0.62 -10.02 -0.65 -4.12 0 -7.29 0.14 -8.67 0.35 -20.91 3.44 -38.38 14.79 -51.76 33.64 -10.45 14.68 -17.77 34.26 -19.99 53.35 -0.43 3.66 -0.98 10.59 -0.98 12.54 l0 1 -4.06 0 -4.06 0 0 -3.49z"/>
 </g>
 <g fill="#8dc7b1">
  <path d="M65.27 223.57 c-0.68 -0.35 -2.22 -0.98 -3.44 -1.35 -1.22 -0.38 -2.84 -0.98 -3.63 -1.35 l-1.46 -0.65 -0.95 0.92 c-1.08 1.06 -2.60 1.76 -3.76 1.76 -1 0 -3.20 -1.46 -4.01 -2.68 -0.87 -1.27 -0.81 -2.84 0.08 -4.28 0.81 -1.25 1.90 -1.98 2.92 -1.98 0.57 0 0.81 -0.27 1.52 -1.76 1.06 -2.22 1.76 -2.68 6.36 -4.36 4.04 -1.44 8.23 -3.36 8.72 -3.93 0.27 -0.32 0.24 -0.73 -0.05 -1.90 -1.19 -4.41 0.46 -7.56 4.36 -8.37 3.28 -0.68 7.20 0.98 8.53 3.60 0.51 1 0.57 1.41 0.43 3.82 -0.16 2.36 -0.27 2.82 -0.92 3.76 -1.54 2.19 -1.71 2.52 -1.71 3.25 0 1.33 1.06 3.79 2.63 6.09 0.84 1.25 1.81 3.01 2.19 3.93 0.81 2.06 0.98 2.25 2.28 2.92 0.57 0.30 1.03 0.70 1.03 0.92 0 0.32 -0.49 0.41 -2.52 0.41 -2.28 0 -2.60 -0.05 -3.09 -0.60 -0.79 -0.87 -3.22 -5.12 -4.31 -7.45 -0.49 -1.08 -1.06 -1.98 -1.27 -1.98 -0.22 0 -0.60 0.27 -0.89 0.57 -0.27 0.32 -1.98 1.57 -3.76 2.74 -3.60 2.41 -3.93 2.71 -3.93 3.74 0 1.06 0.89 1.81 2.57 2.19 0.92 0.19 1.63 0.51 1.79 0.81 0.32 0.62 0 0.84 -1.92 1.25 -0.81 0.16 -1.73 0.38 -2.03 0.46 -0.32 0.08 -1.06 -0.11 -1.76 -0.51z"/>
  <path d="M107.63 175.85 c0.73 -11.56 3.79 -23.05 8.77 -32.99 7.50 -15.03 19.66 -26.38 33.23 -30.98 5.04 -1.71 6.53 -1.92 13.95 -2.11 6.09 -0.14 6.85 -0.11 9.48 0.43 7.75 1.60 14.84 4.90 21.34 9.97 3.33 2.57 9.05 8.37 11.54 11.73 8.94 12 14.16 27.08 15.22 43.96 l0.16 2.90 -4.44 0 -4.47 0 -0.19 -2.76 c-0.65 -9.91 -3.58 -19.96 -8.21 -28.38 -7.47 -13.57 -19.80 -23.32 -32.80 -25.92 -3.39 -0.68 -10.78 -0.68 -13.73 0.03 -7.58 1.76 -14.27 5.15 -20.10 10.18 -10.64 9.21 -18.77 26 -20.12 41.71 -0.16 1.87 -0.35 3.79 -0.43 4.28 l-0.14 0.87 -4.63 0 -4.63 0 0.19 -2.90z"/>
 </g>
 <g fill="#66afb8">
  <path d="M122.31 176.80 c1.25 -15.76 7.10 -29.36 16.58 -38.46 5.50 -5.28 11.67 -8.59 18.88 -10.10 3.09 -0.65 9.56 -0.68 12.59 -0.03 7.12 1.52 13.46 5.01 18.99 10.45 4.96 4.93 8.53 10.40 11.29 17.39 2.68 6.80 4.01 12.70 4.31 19.26 l0.16 3.44 -6.23 0 -6.23 0 -0.32 -3.30 c-0.70 -7.47 -2.74 -13.38 -6.66 -19.34 -4.12 -6.20 -10.35 -10.78 -16.82 -12.32 -2.03 -0.49 -3.01 -0.54 -6.20 -0.46 -3.41 0.11 -4.06 0.22 -6.42 1 -3.52 1.19 -6.58 3.14 -9.67 6.12 -6.47 6.26 -10.89 16.11 -11.59 25.84 l-0.16 2.46 -6.34 0 -6.31 0 0.16 -1.95z"/>
 </g>
</svg>