<svg xmlns="http://www.w3.org/2000/svg" viewBox="42 10 240 240" fill="none">
  <g>
    <path d="M242.48 222.49C239.37 220.08 236.71 218.27 235.98 218.05C235.57 217.91 234.71 217.67 234.08 217.51C233.43 217.32 232.92 217.02 232.92 216.83C232.92 216.4 235.22 215.58 236.47 215.58C237.09 215.58 237.63 215.88 238.47 216.64C239.66 217.72 242.15 218.83 243.45 218.83C244.91 218.83 245.16 218.15 245.4 213.66C245.59 210.38 245.81 209 246.46 206.73C247.41 203.43 247.52 201.26 246.81 200.64C246.32 200.23 243.94 199.66 242.12 199.56C241.04 199.48 240.74 198.86 241.44 198.15C241.98 197.61 243.58 197.61 245.77 198.12C246.66 198.34 248.21 198.53 249.24 198.53H251.05V197.64C251.05 197.15 251.32 196.2 251.67 195.55C252.13 194.57 252.48 194.25 253.35 193.98C254.76 193.49 256.36 193.74 257.2 194.52C258.26 195.52 258.96 197.09 258.77 198.04C258.61 198.74 258.63 198.83 259.07 198.72C259.37 198.64 259.99 198.48 260.48 198.4C260.97 198.29 262.27 197.8 263.38 197.29C264.52 196.78 265.82 196.37 266.39 196.37H267.39L266.77 197.05C266.26 197.62 260.16 200.79 258.51 201.36C257.51 201.71 254.07 206.78 254.04 207.91C254.04 208.97 254.53 209.1 258.4 209.1H262.11L262.95 210.16C263.93 211.41 267.5 213.92 268.58 214.14C269.18 214.25 269.5 214.14 269.99 213.6C270.37 213.22 270.94 212.9 271.32 212.9C271.89 212.9 271.94 212.98 271.78 213.63C271.48 214.85 270.45 216.77 269.94 217.07C269.59 217.31 269.21 217.23 268.31 216.72C263.68 214.12 262.95 213.85 260.67 213.85C259.48 213.85 257.09 214.01 255.39 214.2C251.79 214.61 251.98 214.5 249.73 218.32C248.97 219.59 247.81 221.33 247.13 222.19C245.53 224.22 244.77 224.28 242.47 222.51L242.48 222.49Z" fill="#F7B3AD"/>
    <path d="M49.4 177.48C49.16 175.8 49.72 162.15 50.24 157.09C51.84 142.14 54.95 128.14 59.58 115.19C64.64 101.08 71.96 87.27 79.87 76.79C89.4 64.17 100.78 53.58 112.7 46.19C115.49 44.46 121.56 41.21 123.24 40.53C123.92 40.26 125.08 39.74 125.81 39.39C132.47 36.3 142.41 33.62 151.86 32.38C156.87 31.73 169.46 31.7 173.88 32.33C184.74 33.87 193.41 36.53 203.27 41.32C213.86 46.47 223.04 53.16 232.11 62.28C242.46 72.68 250.17 83.59 257.3 97.79C268.43 120.03 274.63 147.11 274.63 173.57V178.77H266.1H257.57L257.73 174.79C258.41 159.24 254.26 137.28 247.41 119.87C245.7 115.51 241.34 106.57 238.88 102.4C226.1 80.57 206.95 63.94 186.45 56.82C172.72 52.05 159.61 51.05 146.8 53.81C141.49 54.95 135.83 56.55 133.39 57.57C132.96 57.76 131.9 58.19 131.09 58.52C121.56 62.42 110.24 70.36 101.7 79.13C83.36 98.01 71.94 121.65 67.06 150.74C65.81 158.21 65.49 161.82 65.35 170.46L65.19 178.77H57.39H49.59L49.4 177.5V177.48Z" fill="#F7B3AD"/>
    <path d="M111.99 224.25C109.88 223.82 109.47 223.55 109.15 222.3C108.69 220.62 109.04 218.1 110.26 214.36C111.48 210.54 112.72 207.89 115.22 203.82C116.47 201.76 117.28 200.06 117.85 198.21C118.53 195.99 118.83 195.42 119.72 194.61C121.83 192.71 124.62 192.63 126.98 194.37C128.39 195.43 129.07 196.97 129.04 199.19C129.01 201.95 127.98 203.79 126.09 204.39C125.49 204.58 125.25 204.85 125.14 205.45C125.03 205.99 124.71 206.4 123.95 206.8C121.97 207.91 121.95 208.8 123.87 212.19C124.63 213.6 125.74 215.6 126.31 216.66C127.5 218.91 128.21 219.34 129.75 218.77C130.4 218.53 130.86 218.09 131.19 217.39C131.68 216.39 132.25 216.12 132.6 216.69C132.92 217.18 133.28 220.54 133.11 221.43C132.89 222.57 132.13 222.89 128.8 223.22C127.31 223.36 125.55 223.63 124.87 223.84C123.46 224.27 113.68 224.57 112.01 224.25H111.99Z" fill="#DFAF37"/>
    <path d="M89.38 175.31C89.38 164.75 91.41 153.07 95.01 142.46C100.72 125.78 109.88 112.18 122.42 101.83C127.24 97.85 136.26 92.76 142.06 90.73C145.15 89.65 149.97 88.45 153.76 87.86C157.96 87.18 167 87.18 171.04 87.83C180.74 89.46 189.46 92.92 197.66 98.39C208.22 105.43 217.11 115.29 223.42 126.88C230.92 140.64 235.01 156.4 235.8 174.49L235.99 178.74H230.95C226.32 178.74 225.89 178.71 225.89 178.28C225.89 178.01 225.75 175.68 225.62 173.13C224.43 151.82 216.63 132.59 203.6 118.99C197.48 112.57 189.44 107.1 181.53 103.96C178.71 102.85 173 101.41 169.75 101.01C165.47 100.47 157.18 100.79 153.17 101.66C144.29 103.58 136.43 107.29 129.47 112.85C114.87 124.47 104.58 143.56 101.57 164.52C101 168.42 100.49 174.41 100.49 177.03V178.74H94.94H89.39V175.3L89.38 175.31Z" fill="#DFAF37"/>
    <path d="M211.11 229.37C211 229.21 211.16 228.8 211.49 228.48L212.06 227.86L211.38 224.64C210.51 220.71 209.7 217.84 209.32 217.63C208.89 217.36 207.64 217.74 206.83 218.39L206.07 218.99L206.86 221.16C207.84 223.81 208.46 226.9 208.11 227.23C207.73 227.58 204.56 228.61 203.83 228.61C202.67 228.61 202.69 228.04 203.91 227.01C205.51 225.6 205.48 225.36 202.75 220.35C202.15 219.27 202.02 218.78 202.15 217.86C202.34 216.42 203.37 214.34 204.53 213.01L205.42 212.01L204.53 212.15C203.99 212.23 203.53 212.15 203.37 211.91C202.94 211.42 203.29 209.88 204.18 208.06C204.8 206.84 204.97 206.03 205.1 203.97C205.18 202.56 205.45 200.77 205.67 200.02C206.08 198.75 206.08 198.58 205.56 197.61C205.15 196.8 205.02 196.01 205.02 194.36C205.05 190.22 205.67 189.08 207.97 189.08C209.73 189.08 211.63 190.3 212.33 191.87C212.95 193.22 213.01 195.42 212.47 196.39C211.9 197.39 211.93 197.47 213.42 199.4C214.88 201.27 215.86 203.46 215.86 204.87C215.86 205.79 215.43 206.58 214.29 207.82C213.61 208.55 213.61 208.58 213.97 210.8C214.24 212.59 214.24 213.72 214 216.3C213.73 219.01 213.76 219.88 214.08 221.31C214.27 222.29 214.54 224.48 214.62 226.21C214.78 229.32 214.78 229.38 214.16 229.54C213.18 229.81 211.32 229.73 211.13 229.4L211.11 229.37Z" fill="#EF9D7B"/>
    <path d="M120.95 218.24C120.57 217.81 120.52 217.56 120.71 217.24C121.03 216.73 122.31 216.64 122.23 217.16C122.18 217.32 122.26 217.48 122.39 217.48C122.53 217.48 122.61 217.78 122.58 218.16C122.55 219 121.71 219.05 120.95 218.24Z" fill="#EF9D7B"/>
    <path d="M72.04 175.26C72.04 166.3 73.61 155.22 76.37 144.76C81.81 124.07 91.67 106.06 105 92.35C117 80 130.3 72.25 145.57 68.79C149.79 67.81 153.59 67.41 160.41 67.25C166.04 67.11 167.78 67.17 170.35 67.55C190.36 70.47 207.64 80.39 221.92 97.1C237.06 114.79 246.73 138.32 249.84 164.94C250.08 166.94 250.35 170.87 250.44 173.69L250.6 178.75H246.54H242.45L242.29 174.77C241.37 155.19 235.52 135.23 225.96 119.17C218.05 105.82 207.44 94.82 195.57 87.65C188.15 83.15 179.86 79.99 171.57 78.52C168.54 77.98 167.13 77.9 161.55 77.87C157.43 77.87 154.26 78.01 152.88 78.22C131.97 81.66 114.5 93.01 101.12 111.86C90.67 126.54 83.35 146.12 81.13 165.21C80.7 168.87 80.15 175.8 80.15 177.75V178.75H76.09H72.03V175.26H72.04Z" fill="#EF9D7B"/>
    <path d="M65.27 223.57C64.59 223.22 63.05 222.59 61.83 222.22C60.61 221.84 58.99 221.24 58.2 220.87L56.74 220.22L55.79 221.14C54.71 222.2 53.19 222.9 52.03 222.9C51.03 222.9 48.83 221.44 48.02 220.22C47.15 218.95 47.21 217.38 48.1 215.94C48.91 214.69 50 213.96 51.02 213.96C51.59 213.96 51.83 213.69 52.54 212.2C53.6 209.98 54.3 209.52 58.9 207.84C62.94 206.4 67.13 204.48 67.62 203.91C67.89 203.59 67.86 203.18 67.57 202.01C66.38 197.6 68.03 194.45 71.93 193.64C75.21 192.96 79.13 194.62 80.46 197.24C80.97 198.24 81.03 198.65 80.89 201.06C80.73 203.42 80.62 203.88 79.97 204.82C78.43 207.01 78.26 207.34 78.26 208.07C78.26 209.4 79.32 211.86 80.89 214.16C81.73 215.41 82.7 217.17 83.08 218.09C83.89 220.15 84.06 220.34 85.36 221.01C85.93 221.31 86.39 221.71 86.39 221.93C86.39 222.25 85.9 222.34 83.87 222.34C81.59 222.34 81.27 222.29 80.78 221.74C79.99 220.87 77.56 216.62 76.47 214.29C75.98 213.21 75.41 212.31 75.2 212.31C74.98 212.31 74.6 212.58 74.31 212.88C74.04 213.2 72.33 214.45 70.55 215.62C66.95 218.03 66.62 218.33 66.62 219.36C66.62 220.42 67.51 221.17 69.19 221.55C70.11 221.74 70.82 222.06 70.98 222.36C71.3 222.98 70.98 223.2 69.06 223.61C68.25 223.77 67.33 223.99 67.03 224.07C66.71 224.15 65.97 223.96 65.27 223.56V223.57Z" fill="#8DC7B1"/>
    <path d="M107.63 175.85C108.36 164.29 111.42 152.8 116.4 142.86C123.9 127.83 136.06 116.48 149.63 111.88C154.67 110.17 156.16 109.96 163.58 109.77C169.67 109.63 170.43 109.66 173.06 110.2C180.81 111.8 187.9 115.1 194.4 120.17C197.73 122.74 203.45 128.54 205.94 131.9C214.88 143.9 220.1 158.98 221.16 175.86L221.32 178.76H216.88H212.41L212.22 176C211.57 166.09 208.64 156.04 204.01 147.62C196.54 134.05 184.21 124.3 171.21 121.7C167.82 121.02 160.43 121.02 157.48 121.73C149.9 123.49 143.21 126.88 137.38 131.91C126.74 141.12 118.61 157.91 117.26 173.62C117.1 175.49 116.91 177.41 116.83 177.9L116.69 178.77H112.06H107.43L107.62 175.87L107.63 175.85Z" fill="#8DC7B1"/>
    <path d="M122.31 176.8C123.56 161.04 129.41 147.44 138.89 138.34C144.39 133.06 150.56 129.75 157.77 128.24C160.86 127.59 167.33 127.56 170.36 128.21C177.48 129.73 183.82 133.22 189.35 138.66C194.31 143.59 197.88 149.06 200.64 156.05C203.32 162.85 204.65 168.75 204.95 175.31L205.11 178.75H198.88H192.65L192.33 175.45C191.63 167.98 189.59 162.07 185.67 156.11C181.55 149.91 175.32 145.33 168.85 143.79C166.82 143.3 165.84 143.25 162.65 143.33C159.24 143.44 158.59 143.55 156.23 144.33C152.71 145.52 149.65 147.47 146.56 150.45C140.09 156.71 135.67 166.56 134.97 176.29L134.81 178.75H128.47H122.16L122.32 176.8H122.31Z" fill="#66AFB8"/>
  </g>
</svg>